<svg width="127px" height="32px" viewBox="0 0 127 32" aria-hidden="true">
  <g stroke="none" stroke-width="1" fill="none" fill-rule="evenodd">
    <g transform="translate(-120.000000, 0.000000)" fill="#ffffff">
      <g>
        <g transform="translate(120.000000, 0.000000)">
          <g>
            <g>
              <path d="M0.0471468887,5.40335986 L10.5323343,5.40335986 C11.7341512,5.40335986 12.8102518,5.57197961 13.7606683,5.90922416 C14.7110848,6.24646872 15.5173938,6.70020913 16.1796194,7.27045902 C16.8418451,7.8407089 17.3477043,8.51212208 17.6972123,9.2847187 C18.0467203,10.0573153 18.2214717,10.8728217 18.2214717,11.7312624 C18.2214717,12.8717622 17.9547459,13.9386653 17.4212864,14.9320038 C16.8878268,15.9253424 16.0631229,16.7899018 14.94715,17.5257081 C15.8055907,17.8568209 16.5383202,18.2492451 17.1453604,18.7029923 C17.7524006,19.1567395 18.2459966,19.6595329 18.6261632,20.2113877 C19.0063297,20.7632424 19.282253,21.3518786 19.4539411,21.977314 C19.6256292,22.6027493 19.711472,23.2465702 19.711472,23.9087959 C19.711472,24.9389247 19.4907334,25.9107876 19.0492497,26.8244138 C18.6077659,27.7380399 18.0160639,28.5351515 17.2741258,29.2157723 C16.5321878,29.8963931 15.6768258,30.4359763 14.7080142,30.8345381 C13.7392025,31.2330998 12.7336157,31.4323777 11.6912234,31.4323777 L0.0471468887,31.4323777 L0.0471468887,5.40335986 Z M4.14924652,15.9805226 L9.92529712,15.9805226 C10.5629959,15.9805226 11.1546979,15.8762849 11.700421,15.6678065 C12.246144,15.459328 12.7121476,15.180339 13.0984459,14.830831 C13.4847442,14.481323 13.7882598,14.070504 14.0090017,13.5983616 C14.2297436,13.1262192 14.3401129,12.6264916 14.3401129,12.0991637 C14.3401129,11.6208896 14.2634675,11.1763467 14.1101745,10.7655215 C13.9568816,10.3546963 13.7177481,9.99906192 13.392767,9.69860768 C13.0677859,9.39815344 12.6569668,9.16208579 12.1602976,8.99039765 C11.6636283,8.81870952 11.0780579,8.73286673 10.4035688,8.73286673 L4.14924652,8.73286673 L4.14924652,15.9805226 Z M4.14924652,28.1212659 L10.5691244,28.1212659 C11.1577695,28.1212659 11.7494715,28.0354231 12.3442482,27.863735 C12.939025,27.6920468 13.4724766,27.4283869 13.944619,27.0727471 C14.4167613,26.7171074 14.8030538,26.2664328 15.1035081,25.7207098 C15.4039623,25.1749868 15.5541872,24.5281001 15.5541872,23.7800304 C15.5541872,23.1668585 15.4192914,22.5843539 15.1494958,22.0324992 C14.8797001,21.4806444 14.487276,20.9962459 13.9722116,20.579289 C13.4571471,20.1623321 12.8317212,19.8312242 12.0959149,19.5859554 C11.3601086,19.3406867 10.5262073,19.2180541 9.59418594,19.2180541 L4.14924652,19.2180541 L4.14924652,28.1212659 Z M37.4259202,31.1196616 L33.4157959,31.1196616 L33.4157959,29.4457106 C32.5941455,30.071146 31.6897305,30.5586103 30.7025237,30.9081183 C29.7153169,31.2576263 28.743454,31.4323777 27.7869058,31.4323777 C26.8426211,31.4323777 25.9964565,31.2974819 25.2483868,31.0276862 C24.500317,30.7578906 23.8656936,30.3715981 23.3444975,29.8687971 C22.8233013,29.3659961 22.4247456,28.758965 22.1488182,28.0476856 C21.8728909,27.3364062 21.7349292,26.533163 21.7349292,25.637932 L21.7349292,12.3934848 L25.7818437,12.3934848 L25.7818437,25.3068208 C25.7818437,25.8464121 25.8400941,26.3032184 25.9565968,26.6772532 C26.0730995,27.0512881 26.2417192,27.3517378 26.4624611,27.5786114 C26.683203,27.8054851 26.9529946,27.971039 27.271844,28.0752782 C27.5906934,28.1795174 27.9463278,28.2316363 28.3387578,28.2316363 C29.0377738,28.2316363 29.6938579,28.0998063 30.3070298,27.8361424 C30.9202017,27.5724784 31.4567191,27.2260415 31.9165981,26.7968212 C32.376477,26.3676008 32.7413088,25.870939 33.0111045,25.3068208 C33.2809001,24.7427027 33.4157959,24.1601981 33.4157959,23.5592896 L33.4157959,12.3934848 L37.4259202,12.3934848 L37.4259202,31.1196616 Z M46.329132,7.39002695 L46.329132,12.7062009 L49.0883918,12.7062009 L49.0883918,15.8517571 L46.329132,15.8517571 L46.329132,26.9807718 C46.329132,27.6062072 46.4456329,28.0354211 46.6786382,28.2684264 C46.9116435,28.5014317 47.2182249,28.6179327 47.5983915,28.6179327 C47.7578162,28.6179327 47.9846864,28.596472 48.2790089,28.5535499 C48.5733314,28.5106279 48.9902821,28.4278509 49.5298734,28.3052165 L49.5298734,31.3404024 C49.014809,31.4753002 48.5028181,31.5826037 47.9938854,31.662316 C47.4849527,31.7420284 47.0097516,31.7818839 46.5682678,31.7818839 C45.9918862,31.7818839 45.4461714,31.7113702 44.931107,31.5703407 C44.4160426,31.4293111 43.9623021,31.2055068 43.5698721,30.8989208 C43.1774421,30.5923348 42.8647291,30.1937791 42.6317238,29.7032415 C42.3987184,29.212704 42.2822175,28.6118045 42.2822175,27.9005251 L42.2822175,15.8517571 L39.5045626,15.8517571 L39.5045626,12.7062009 L42.2822175,12.7062009 L42.2822175,7.39002695 L46.329132,7.39002695 Z M57.0902453,7.39002695 L57.0902453,12.7062009 L59.8495052,12.7062009 L59.8495052,15.8517571 L57.0902453,15.8517571 L57.0902453,26.9807718 C57.0902453,27.6062072 57.2067463,28.0354211 57.4397516,28.2684264 C57.6727569,28.5014317 57.9793383,28.6179327 58.3595049,28.6179327 C58.5189296,28.6179327 58.7457998,28.596472 59.0401223,28.5535499 C59.3344448,28.5106279 59.7513955,28.4278509 60.2909867,28.3052165 L60.2909867,31.3404024 C59.7759223,31.4753002 59.2639315,31.5826037 58.7549988,31.662316 C58.2460661,31.7420284 57.770865,31.7818839 57.3293812,31.7818839 C56.7529996,31.7818839 56.2072848,31.7113702 55.6922203,31.5703407 C55.1771559,31.4293111 54.7234155,31.2055068 54.3309855,30.8989208 C53.9385555,30.5923348 53.6258425,30.1937791 53.3928371,29.7032415 C53.1598318,29.212704 53.0433309,28.6118045 53.0433309,27.9005251 L53.0433309,15.8517571 L50.265676,15.8517571 L50.265676,12.7062009 L53.0433309,12.7062009 L53.0433309,7.39002695 L57.0902453,7.39002695 Z M61.5050611,22.0876844 C61.5050611,20.7509696 61.6982073,19.493986 62.0845056,18.3166959 C62.470804,17.1394058 63.0349137,16.1123583 63.7768517,15.2355224 C64.5187897,14.3586866 65.435468,13.6658127 66.526914,13.15688 C67.61836,12.6479473 68.869212,12.3934848 70.2795074,12.3934848 C71.6898028,12.3934848 72.9467864,12.6479473 74.0504958,13.15688 C75.1542053,13.6658127 76.0831468,14.3586866 76.8373483,15.2355224 C77.5915497,16.1123583 78.1648569,17.1394058 78.5572869,18.3166959 C78.9497169,19.493986 79.145929,20.7509696 79.145929,22.0876844 C79.145929,23.4243991 78.9497169,24.6783169 78.5572869,25.8494753 C78.1648569,27.0206336 77.5915497,28.0446154 76.8373483,28.9214512 C76.0831468,29.7982871 75.1542053,30.4880951 74.0504958,30.9908961 C72.9467864,31.4936971 71.6898028,31.7450938 70.2795074,31.7450938 C68.869212,31.7450938 67.61836,31.4936971 66.526914,30.9908961 C65.435468,30.4880951 64.5187897,29.7982871 63.7768517,28.9214512 C63.0349137,28.0446154 62.470804,27.0206336 62.0845056,25.8494753 C61.6982073,24.6783169 61.5050611,23.4243991 61.5050611,22.0876844 L61.5050611,22.0876844 Z M65.5151854,22.0876844 C65.5151854,22.9706519 65.6255547,23.8045532 65.8462966,24.5894133 C66.0670385,25.3742733 66.3828173,26.0610156 66.7936424,26.6496606 C67.2044676,27.2383057 67.7041952,27.7012435 68.2928403,28.0384881 C68.8814853,28.3757326 69.5437011,28.5443524 70.2795074,28.5443524 C71.0153137,28.5443524 71.6805952,28.3757326 72.275372,28.0384881 C72.8701488,27.7012435 73.3729422,27.2383057 73.7837674,26.6496606 C74.1945926,26.0610156 74.5134372,25.3742733 74.7403108,24.5894133 C74.9671844,23.8045532 75.0806195,22.9706519 75.0806195,22.0876844 C75.0806195,21.1924534 74.9671844,20.3524204 74.7403108,19.5675604 C74.5134372,18.7827003 74.1945926,18.0959581 73.7837674,17.507313 C73.3729422,16.918668 72.8701488,16.4526643 72.275372,16.109288 C71.6805952,15.7659118 71.0153137,15.5942262 70.2795074,15.5942262 C69.5437011,15.5942262 68.8814853,15.7659118 68.2928403,16.109288 C67.7041952,16.4526643 67.2044676,16.918668 66.7936424,17.507313 C66.3828173,18.0959581 66.0670385,18.7827003 65.8462966,19.5675604 C65.6255547,20.3524204 65.5151854,21.1924534 65.5151854,22.0876844 L65.5151854,22.0876844 Z M81.7212382,12.7062009 L85.7681526,12.7062009 L85.7681526,14.3801519 C86.589803,13.7547165 87.4911522,13.2672522 88.4722273,12.9177442 C89.4533023,12.5682362 90.4159678,12.3934848 91.3602526,12.3934848 C92.3168008,12.3934848 93.1690969,12.5283806 93.9171667,12.7981762 C94.6652364,13.0679719 95.296794,13.4511986 95.8118584,13.9478678 C96.3269228,14.4445371 96.7224128,15.0485024 96.9983402,15.7597818 C97.2742675,16.4710612 97.4122291,17.2743044 97.4122291,18.1695354 L97.4122291,31.4323777 L93.4021048,31.4323777 L93.4021048,18.5006466 C93.4021048,17.4337274 93.1752346,16.6826031 92.7214874,16.247251 C92.2677402,15.811899 91.6484458,15.5942262 90.8635858,15.5942262 C90.1523064,15.5942262 89.4870248,15.7260562 88.8677212,15.9897201 C88.2484175,16.253384 87.7088343,16.599821 87.2489554,17.0290413 C86.7890765,17.4582617 86.4273105,17.9549235 86.1636465,18.5190416 C85.8999826,19.0831598 85.7681526,19.6656644 85.7681526,20.2665729 L85.7681526,31.4323777 L81.7212382,31.4323777 L81.7212382,12.7062009 Z"></path>
              <g transform="translate(99.809524, 0.000000)">
                <path d="M13.6429293,27.2880227 L15.2457036,24.8614181 L16.1264155,24.66468 C21.258311,23.51829 24.9702093,18.9425991 24.9702093,13.6148811 C24.9702093,7.36194241 19.8989972,2.29259989 13.642928,2.29259989 C7.38685875,2.29259989 2.31564665,7.36194241 2.31564665,13.6148811 C2.31564665,18.9425991 6.02754503,23.51829 11.1594405,24.66468 L12.0401532,24.8614183 L12.5375109,25.614414 L13.6429293,27.2880227 Z M0.0799990202,13.6148811 C0.0799990202,6.12704375 6.15232916,0.0569522554 13.642928,0.0569522554 C21.1335268,0.0569522554 27.205857,6.12704375 27.205857,13.6148811 C27.205857,20.0825498 22.6754407,25.4924732 16.6138135,26.8465516 L13.642928,31.3444803 L10.6720472,26.8465526 C4.6104153,25.4924732 0.0799990202,20.0825498 0.0799990202,13.6148811 Z" fill-rule="nonzero"></path><path d="M14.4453288,9.12702278 C14.4453288,8.50966573 14.9457956,8.00919896 15.5631527,8.00919896 L17.9915731,8.00919896 C18.6089302,8.00919896 19.109397,8.50966573 19.109397,9.12702278 L19.109397,11.5472573 C19.109397,12.1646143 18.6089302,12.6650811 17.9915731,12.6650811 L15.5631527,12.6650811 C14.9457956,12.6650811 14.4453288,12.1646143 14.4453288,11.5472573 L14.4453288,9.12702278 Z M7.91563346,9.12702278 C7.91563346,8.50966573 8.41610023,8.00919896 9.03345728,8.00919896 L11.4618778,8.00919896 C12.0792348,8.00919896 12.5797016,8.50966573 12.5797016,9.12702278 L12.5797016,11.5472573 C12.5797016,12.1646143 12.0792348,12.6650811 11.4618778,12.6650811 L9.03345728,12.6650811 C8.41610023,12.6650811 7.91563346,12.1646143 7.91563346,11.5472573 L7.91563346,9.12702278 Z M14.4453288,15.6452578 C14.4453288,15.0279007 14.9457956,14.527434 15.5631527,14.527434 L17.9915731,14.527434 C18.6089302,14.527434 19.109397,15.0279007 19.109397,15.6452578 L19.109397,18.0654923 C19.109397,18.6828493 18.6089302,19.1833161 17.9915731,19.1833161 L15.5631527,19.1833161 C14.9457956,19.1833161 14.4453288,18.6828493 14.4453288,18.0654923 L14.4453288,15.6452578 Z M7.91563346,15.6452578 C7.91563346,15.0279007 8.41610023,14.527434 9.03345728,14.527434 L11.4618778,14.527434 C12.0792348,14.527434 12.5797016,15.0279007 12.5797016,15.6452578 L12.5797016,18.0654923 C12.5797016,18.6828493 12.0792348,19.1833161 11.4618778,19.1833161 L9.03345728,19.1833161 C8.41610023,19.1833161 7.91563346,18.6828493 7.91563346,18.0654923 L7.91563346,15.6452578 Z"></path>
              </g>
            </g>
          </g>
        </g>
      </g>
    </g>
  </g>
</svg>